<svg xmlns="http://www.w3.org/2000/svg" xmlns:xlink="http://www.w3.org/1999/xlink" xmlns:lucid="lucid" width="1360" height="1760"><g transform="translate(0 0)" lucid:page-tab-id="0_0"><path d="M0 0h1360v1760H0z" fill="#fff"/><path d="M448 80c17.67 0 32 17.9 32 40s-14.33 40-32 40h-96c-17.67 0-32-17.9-32-40s14.33-40 32-40z" stroke="#000" stroke-width="2" fill="#f9d2de"/><use xlink:href="#a" transform="matrix(1,0,0,1,325,85) translate(41.575 38.6)"/><path d="M320 240h160v80H320z" stroke="#000" stroke-width="2" fill="#f9d2de"/><use xlink:href="#b" transform="matrix(1,0,0,1,325,245) translate(7.074999999999989 38.6)"/><use xlink:href="#c" transform="matrix(1,0,0,1,325,245) translate(48.02499999999999 38.6)"/><use xlink:href="#d" transform="matrix(1,0,0,1,325,245) translate(88.975 38.6)"/><path d="M400 160v79" stroke="#000" stroke-width="2" fill="none"/><path/><path d="M400 239l-4.64-14.27h9.28z"/><path d="M400.73 240h-1.46L394 223.73h12zm-4-14.27l3.27 10.03 3.26-10.03z"/><path d="M400 380l80 60-80 60-80-60z" stroke="#000" stroke-width="2" fill="#f9d2de"/><use xlink:href="#e" transform="matrix(1,0,0,1,325,385) translate(52 58.6)"/><use xlink:href="#f" transform="matrix(1,0,0,1,325,385) translate(78 58.6)"/><path d="M400 320v60" stroke="#000" stroke-width="2" fill="none"/><path/><path d="M400 380l-4.64-14.27h9.28z"/><path d="M400.85 380.63L400 380l-.85.63-5.16-15.9h12zm-4.1-13.9l3.25 10.03 3.26-10.03z"/><path d="M440 1520h160l-32 120h-96z" stroke="#000" stroke-width="2" fill="#c7e8ac"/><use xlink:href="#g" transform="matrix(1,0,0,1,445,1525) translate(30.049999999999997 58.6)"/><use xlink:href="#h" transform="matrix(1,0,0,1,445,1525) translate(84 58.6)"/><path d="M1120 220l80 60-80 60-80-60z" stroke="#000" stroke-width="2" fill="#c1e4f7"/><use xlink:href="#e" transform="matrix(1,0,0,1,1045,225) translate(52 58.6)"/><use xlink:href="#f" transform="matrix(1,0,0,1,1045,225) translate(78 58.6)"/><path d="M868 400c17.67 0 32 17.9 32 40s-14.33 40-32 40h-96c-17.67 0-32-17.9-32-40s14.33-40 32-40z" stroke="#000" stroke-width="2" fill="#c1e4f7"/><use xlink:href="#i" transform="matrix(1,0,0,1,745,405) translate(18.299999999999997 27.799999999999997)"/><use xlink:href="#j" transform="matrix(1,0,0,1,745,405) translate(121.2 27.799999999999997)"/><use xlink:href="#k" transform="matrix(1,0,0,1,745,405) translate(50.575 49.4)"/><path d="M1120 160v58.75" stroke="#000" stroke-width="2" fill="none"/><path/><path d="M1120 218.75l-4.64-14.27h9.28z"/><path d="M1120.52 220.4l-.52-.4-.52.4-5.5-16.92h12.03zm-3.78-14.92l3.26 10.03 3.26-10.02z"/><path d="M1168 400c17.67 0 32 17.9 32 40s-14.33 40-32 40h-96c-17.67 0-32-17.9-32-40s14.33-40 32-40z" stroke="#000" stroke-width="2" fill="#c1e4f7"/><use xlink:href="#i" transform="matrix(1,0,0,1,1045,405) translate(18.299999999999997 27.799999999999997)"/><use xlink:href="#j" transform="matrix(1,0,0,1,1045,405) translate(121.2 27.799999999999997)"/><use xlink:href="#l" transform="matrix(1,0,0,1,1045,405) translate(47.025 49.4)"/><path d="M320 580h160v120H320z" stroke="#000" stroke-width="2" fill="#f9d2de"/><use xlink:href="#m" transform="matrix(1,0,0,1,325,585) translate(2 37)"/><use xlink:href="#n" transform="matrix(1,0,0,1,325,585) translate(54 37)"/><use xlink:href="#o" transform="matrix(1,0,0,1,325,585) translate(104 37)"/><use xlink:href="#p" transform="matrix(1,0,0,1,325,585) translate(129 37)"/><use xlink:href="#q" transform="matrix(1,0,0,1,325,585) translate(15.075000000000003 58.6)"/><use xlink:href="#r" transform="matrix(1,0,0,1,325,585) translate(64.075 58.6)"/><use xlink:href="#s" transform="matrix(1,0,0,1,325,585) translate(55.525 80.20000000000002)"/><path d="M320 760h160v120H320z" stroke="#000" stroke-width="2" fill="#c7e8ac"/><use xlink:href="#t" transform="matrix(1,0,0,1,325,765) translate(14.599999999999994 26.19999999999999)"/><use xlink:href="#u" transform="matrix(1,0,0,1,325,765) translate(57.55 26.19999999999999)"/><use xlink:href="#v" transform="matrix(1,0,0,1,325,765) translate(101.45 26.19999999999999)"/><use xlink:href="#w" transform="matrix(1,0,0,1,325,765) translate(2.4499999999999886 47.79999999999999)"/><use xlink:href="#x" transform="matrix(1,0,0,1,325,765) translate(42.69999999999999 47.79999999999999)"/><use xlink:href="#y" transform="matrix(1,0,0,1,325,765) translate(68.64999999999999 47.79999999999999)"/><use xlink:href="#z" transform="matrix(1,0,0,1,325,765) translate(15.099999999999994 69.39999999999999)"/><use xlink:href="#A" transform="matrix(1,0,0,1,325,765) translate(99 69.39999999999999)"/><use xlink:href="#B" transform="matrix(1,0,0,1,325,765) translate(33.525 91)"/><path d="M400 700v59" stroke="#000" stroke-width="2" fill="none"/><path/><path d="M400 759l-4.64-14.27h9.28z"/><path d="M400.73 760h-1.46L394 743.73h12zm-4-14.27l3.27 10.03 3.26-10.03z"/><path d="M400 940l80 60-80 60-80-60z" stroke="#000" stroke-width="2" fill="#c7e8ac"/><use xlink:href="#C" transform="matrix(1,0,0,1,325,945) translate(50 58.6)"/><path d="M640 940l80 60-80 60-80-60z" stroke="#000" stroke-width="2" fill="#c7e8ac"/><use xlink:href="#D" transform="matrix(1,0,0,1,565,945) translate(49.025 58.6)"/><path d="M160 940l80 60-80 60-80-60z" stroke="#000" stroke-width="2" fill="#c7e8ac"/><use xlink:href="#E" transform="matrix(1,0,0,1,85,945) translate(55.525 58.6)"/><path d="M208 1600c17.67 0 32 17.9 32 40s-14.33 40-32 40h-96c-17.67 0-32-17.9-32-40s14.33-40 32-40z" stroke="#000" stroke-width="2" fill="#c7e8ac"/><use xlink:href="#F" transform="matrix(1,0,0,1,85,1605) translate(7.575000000000003 38.6)"/><use xlink:href="#G" transform="matrix(1,0,0,1,85,1605) translate(79.47500000000001 38.6)"/><use xlink:href="#H" transform="matrix(1,0,0,1,85,1605) translate(114.47500000000001 38.6)"/><path d="M160 1060v539" stroke="#000" stroke-width="2" fill="none"/><path d="M160 1060h-1v-.75zm1 0h-1l1-.75zM160 1599l-4.64-14.27h9.28z"/><path d="M160.73 1600h-1.46l-5.28-16.27h12zm-4-14.27l3.27 10.03 3.26-10.03z"/><path d="M400 880v58.75" stroke="#000" stroke-width="2" fill="none"/><path/><path d="M400 938.75l-4.64-14.27h9.28z"/><path d="M400.52 940.4l-.52-.4-.52.4-5.5-16.92h12.03zm-3.78-14.92L400 935.5l3.26-10.02z"/><path d="M400 880v30H160v30" stroke="#000" stroke-width="2" fill="none"/><path/><path d="M160 940l-4.64-14.27h9.28z"/><path d="M160.85 940.63L160 940l-.85.63-5.16-15.9h12zm-4.1-13.9l3.25 10.03 3.26-10.03z"/><path d="M400 880v30h240v30" stroke="#000" stroke-width="2" fill="none"/><path/><path d="M640 940l-4.64-14.27h9.28z"/><path d="M640.85 940.63L640 940l-.85.63-5.16-15.9h12zm-4.1-13.9l3.25 10.03 3.26-10.03z"/><path d="M400 1260l80 60-80 60-80-60z" stroke="#000" stroke-width="2" fill="#c7e8ac"/><use xlink:href="#I" transform="matrix(1,0,0,1,325,1265) translate(23.549999999999997 58.6)"/><use xlink:href="#J" transform="matrix(1,0,0,1,325,1265) translate(64.5 58.6)"/><path d="M400 1380v70h120v70" stroke="#000" stroke-width="2" fill="none"/><path d="M400 1380h-1v-.75zm1 0h-1l1-.75zM520 1520l-4.64-14.27h9.28z"/><path d="M521.05 1520h-2.1l-4.96-15.27h12zm-4.3-13.27l3.25 10.03 3.26-10.03z"/><use xlink:href="#K" transform="matrix(1,0,0,1,407.99999999999994,1374.2) translate(0 14.4)"/><path d="M640 1160l80 60-80 60-80-60z" stroke="#000" stroke-width="2" fill="#c7e8ac"/><use xlink:href="#I" transform="matrix(1,0,0,1,565,1165) translate(29.525 58.6)"/><use xlink:href="#L" transform="matrix(1,0,0,1,565,1165) translate(70.475 58.6)"/><path d="M640 1280v170H520v70" stroke="#000" stroke-width="2" fill="none"/><path d="M640 1280h-1v-.75zm1 0h-1l1-.75zM520 1520l-4.64-14.27h9.28z"/><path d="M521.05 1520h-2.1l-4.96-15.27h12zm-4.3-13.27l3.25 10.03 3.26-10.03z"/><use xlink:href="#K" transform="matrix(1,0,0,1,602.6500000000001,1274.2) translate(0 14.4)"/><path d="M640 1060v98.75" stroke="#000" stroke-width="2" fill="none"/><path d="M640 1060h-1v-.75zm1 0h-1l1-.75zM640 1158.75l-4.64-14.27h9.28z"/><path d="M640.52 1160.4l-.52-.4-.52.4-5.5-16.92h12.03zm-3.78-14.92l3.26 10.03 3.26-10.02z"/><path d="M480 1320h40V915c-2.76 0-5-2.24-5-5s2.24-5 5-5v-85h-40" stroke="#000" stroke-width="2" fill="none"/><path d="M480 1321h-1.33l1.33-1-1.33-1H480zM494.27 824.64L480 820l14.27-4.64z"/><path d="M495.27 826L480 821.06v-2.1l15.27-4.96zm-12.03-6l10.03 3.26v-6.52z"/><use xlink:href="#M" transform="matrix(1,0,0,1,475.525,1294.3999999999999) translate(0 14.4)"/><path d="M720 1220h40V820H480" stroke="#000" stroke-width="2" fill="none"/><path d="M720 1221h-1.33l1.33-1-1.33-1H720zM494.27 824.64L480 820l14.27-4.64z"/><path d="M495.27 826L480 821.06v-2.1l15.27-4.96zm-12.03-6l10.03 3.26v-6.52z"/><use xlink:href="#M" transform="matrix(1,0,0,1,715.1916666666666,1194.4) translate(0 14.4)"/><path d="M480 80h340v80H480z" stroke="#000" stroke-width="2" fill="#f9d2de"/><use xlink:href="#m" transform="matrix(1,0,0,1,485,85) translate(11.775000000000006 17)"/><use xlink:href="#n" transform="matrix(1,0,0,1,485,85) translate(63.775000000000006 17)"/><use xlink:href="#N" transform="matrix(1,0,0,1,485,85) translate(113.775 17)"/><use xlink:href="#O" transform="matrix(1,0,0,1,485,85) translate(138.775 17)"/><use xlink:href="#P" transform="matrix(1,0,0,1,485,85) translate(162.775 17)"/><use xlink:href="#Q" transform="matrix(1,0,0,1,485,85) translate(217.775 17)"/><use xlink:href="#R" transform="matrix(1,0,0,1,485,85) translate(237.775 17)"/><use xlink:href="#S" transform="matrix(1,0,0,1,485,85) translate(275.67499999999995 17)"/><use xlink:href="#m" transform="matrix(1,0,0,1,485,85) translate(10.25 38.6)"/><use xlink:href="#n" transform="matrix(1,0,0,1,485,85) translate(62.25 38.6)"/><use xlink:href="#T" transform="matrix(1,0,0,1,485,85) translate(112.25 38.6)"/><use xlink:href="#O" transform="matrix(1,0,0,1,485,85) translate(137.25 38.6)"/><use xlink:href="#P" transform="matrix(1,0,0,1,485,85) translate(161.25 38.6)"/><use xlink:href="#Q" transform="matrix(1,0,0,1,485,85) translate(216.25 38.6)"/><use xlink:href="#c" transform="matrix(1,0,0,1,485,85) translate(236.25 38.6)"/><use xlink:href="#S" transform="matrix(1,0,0,1,485,85) translate(277.2 38.6)"/><use xlink:href="#m" transform="matrix(1,0,0,1,485,85) translate(18.099999999999994 60.2)"/><use xlink:href="#n" transform="matrix(1,0,0,1,485,85) translate(70.1 60.2)"/><use xlink:href="#o" transform="matrix(1,0,0,1,485,85) translate(120.1 60.2)"/><use xlink:href="#O" transform="matrix(1,0,0,1,485,85) translate(145.1 60.2)"/><use xlink:href="#U" transform="matrix(1,0,0,1,485,85) translate(169.1 60.2)"/><use xlink:href="#V" transform="matrix(1,0,0,1,485,85) translate(213.04999999999998 60.2)"/><use xlink:href="#W" transform="matrix(1,0,0,1,485,85) translate(253.95 60.2)"/><path d="M1060 600h120v80h-120z" stroke="#c92d39" stroke-width="2" fill="#c1e4f7"/><use xlink:href="#t" transform="matrix(1,0,0,1,1065,605) translate(13.599999999999994 38.6)"/><use xlink:href="#X" transform="matrix(1,0,0,1,1065,605) translate(56.55 38.6)"/><path d="M1120 480v119" stroke="#000" stroke-width="2" fill="none"/><path/><path d="M1120 599l-4.64-14.27h9.28z"/><path d="M1120.73 600h-1.46l-5.28-16.27h12zm-4-14.27l3.27 10.03 3.26-10.03z"/><path d="M1120 740l80 60-80 60-80-60z" stroke="#c92d39" stroke-width="2" fill="#c1e4f7"/><use xlink:href="#Y" transform="matrix(1,0,0,1,1045,745) translate(23.099999999999994 58.6)"/><use xlink:href="#Z" transform="matrix(1,0,0,1,1045,745) translate(61.99999999999999 58.6)"/><use xlink:href="#aa" transform="matrix(1,0,0,1,1045,745) translate(88 58.6)"/><path d="M1120 680v58.75" stroke="#000" stroke-width="2" fill="none"/><path/><path d="M1120 738.75l-4.64-14.27h9.28z"/><path d="M1120.52 740.4l-.52-.4-.52.4-5.5-16.92h12.03zm-3.78-14.92l3.26 10.03 3.26-10.02z"/><path d="M1040 920h160v80h-160z" stroke="#c92d39" stroke-width="2" fill="#c1e4f7"/><use xlink:href="#ab" transform="matrix(1,0,0,1,1045,925) translate(15.024999999999999 27.799999999999997)"/><use xlink:href="#ac" transform="matrix(1,0,0,1,1045,925) translate(62.025 27.799999999999997)"/><use xlink:href="#ad" transform="matrix(1,0,0,1,1045,925) translate(24.599999999999994 49.4)"/><use xlink:href="#ae" transform="matrix(1,0,0,1,1045,925) translate(72.55 49.4)"/><path d="M1120 860v59.33" stroke="#000" stroke-width="2" fill="none"/><path d="M1120 860h-1v-.75zm1 0h-1l1-.75zM1120 919.33l-4.64-14.26h9.28z"/><path d="M1120.83 920h-1.66l-5.18-15.93h12zm-4.1-13.93l3.27 10.03 3.26-10.03z"/><use xlink:href="#K" transform="matrix(1,0,0,1,1082.6499999999999,854.2) translate(0 14.4)"/><path d="M1120 1200l80 60-80 60-80-60z" stroke="#c92d39" stroke-width="2" fill="#c1e4f7"/><use xlink:href="#Y" transform="matrix(1,0,0,1,1045,1205) translate(18.099999999999994 58.6)"/><use xlink:href="#Z" transform="matrix(1,0,0,1,1045,1205) translate(56.99999999999999 58.6)"/><use xlink:href="#af" transform="matrix(1,0,0,1,1045,1205) translate(83 58.6)"/><path d="M1060 1060h120v80h-120z" stroke="#c92d39" stroke-width="2" fill="#c1e4f7"/><use xlink:href="#t" transform="matrix(1,0,0,1,1065,1065) translate(13.599999999999994 38.6)"/><use xlink:href="#X" transform="matrix(1,0,0,1,1065,1065) translate(56.55 38.6)"/><path d="M1120 1000v59" stroke="#000" stroke-width="2" fill="none"/><path/><path d="M1120 1059l-4.64-14.27h9.28z"/><path d="M1120.73 1060h-1.46l-5.28-16.27h12zm-4-14.27l3.27 10.03 3.26-10.03z"/><path d="M1040 1260h-40V640h60" stroke="#000" stroke-width="2" fill="none"/><path d="M1040 1260l1.33 1H1040v-2h1.33zM1060 640l-14.27 4.64v-9.28z"/><path d="M1060 638.95v2.1l-15.27 4.96v-12zm-13.27 4.3l10.03-3.25-10.03-3.26z"/><use xlink:href="#K" transform="matrix(1,0,0,1,1015.325,1264) translate(0 14.4)"/><path d="M1120 1140v58.75" stroke="#000" stroke-width="2" fill="none"/><path/><path d="M1120 1198.75l-4.64-14.27h9.28z"/><path d="M1120.52 1200.4l-.52-.4-.52.4-5.5-16.92h12.03zm-3.78-14.92l3.26 10.03 3.26-10.02z"/><path d="M1120 1380l80 60-80 60-80-60z" stroke="#c92d39" stroke-width="2" fill="#c1e4f7"/><use xlink:href="#ag" transform="matrix(1,0,0,1,1045,1385) translate(37.55 47.8)"/><use xlink:href="#ah" transform="matrix(1,0,0,1,1045,1385) translate(27 69.4)"/><use xlink:href="#ai" transform="matrix(1,0,0,1,1045,1385) translate(61.7 69.4)"/><path d="M1168 1560c17.67 0 32 17.9 32 40s-14.33 40-32 40h-96c-17.67 0-32-17.9-32-40s14.33-40 32-40z" stroke="#c92d39" stroke-width="2" fill="#c1e4f7"/><use xlink:href="#aj" transform="matrix(1,0,0,1,1045,1565) translate(56.5 38.6)"/><path d="M1120 1500v59" stroke="#000" stroke-width="2" fill="none"/><path d="M1120 1500h-1v-.75zm1 0h-1l1-.75zM1120 1559l-4.64-14.27h9.28z"/><path d="M1120.73 1560h-1.46l-5.28-16.27h12zm-4-14.27l3.27 10.03 3.26-10.03z"/><use xlink:href="#K" transform="matrix(1,0,0,1,1082.6499999999999,1494.2) translate(0 14.4)"/><path d="M1120 1320v58.75" stroke="#000" stroke-width="2" fill="none"/><path d="M1120 1320h-1v-.75zm1 0h-1l1-.75zM1120 1378.75l-4.64-14.27h9.28z"/><path d="M1120.52 1380.4l-.52-.4-.52.4-5.5-16.92h12.03zm-3.78-14.92l3.26 10.03 3.26-10.02z"/><use xlink:href="#M" transform="matrix(1,0,0,1,1128,1314.2) translate(0 14.4)"/><path d="M1200 1440h40v-178.75h-40" stroke="#000" stroke-width="2" fill="none"/><path d="M1200 1441h-1.33l1.33-1-1.33-1h1.33zM1214.27 1265.9l-14.27-4.65 14.27-4.64z"/><path d="M1215.27 1267.26l-17.4-5.65 1.66-1.25 15.74-5.1zm-12.03-6l10.03 3.25v-6.5z"/><use xlink:href="#M" transform="matrix(1,0,0,1,1195.4649173596188,1414.4) translate(0 14.4)"/><path d="M1200 800h40V700h-120v40" stroke="#000" stroke-width="2" fill="none"/><path d="M1200 801h-1.33l1.33-1-1.33-1h1.33zM1120 740l-4.64-14.27h9.28z"/><path d="M1120.85 740.63l-.85-.63-.85.63-5.16-15.9h12zm-4.1-13.9l3.25 10.03 3.26-10.03z"/><g><use xlink:href="#M" transform="matrix(1,0,0,1,1206.8658234662055,774.4) translate(0 14.4)"/></g><path d="M400 500v40h600V440h40" stroke="#000" stroke-width="2" fill="none"/><path d="M400 500h-1v-.75zm1 0h-1l1-.75zM1040 440l-14.27 4.64v-9.28z"/><path d="M1040.06 438.97L1040 440l.04 1.04-15.3 4.97v-12zm-13.33 4.3l10.03-3.27-10.03-3.26z"/><g><use xlink:href="#M" transform="matrix(1,0,0,1,407.99999999999994,497.179296120005) translate(0 14.4)"/></g><path d="M480 440h259" stroke="#000" stroke-width="2" fill="none"/><path d="M480 441h-1.33l1.33-1-1.33-1H480zM739 440l-14.27 4.64v-9.28z"/><path d="M740.04 439.3l-.04.7.03.72-16.3 5.3v-12.03zm-14.3 3.96l10.02-3.26-10.03-3.26z"/><g><use xlink:href="#K" transform="matrix(1,0,0,1,475.325,414.40000000000003) translate(0 14.4)"/></g><path d="M1120 340v60" stroke="#000" stroke-width="2" fill="none"/><path d="M1120 340h-1v-.75zm1 0h-1l1-.75zM1120 400l-4.64-14.27h9.28z"/><path d="M1121.05 400h-2.1l-4.96-15.27h12zm-4.3-13.27l3.25 10.03 3.26-10.03z"/><g><use xlink:href="#M" transform="matrix(1,0,0,1,1128,334.2) translate(0 14.4)"/></g><path d="M760 240h120v80H760z" stroke="#c92d39" stroke-width="2" fill="#c1e4f7"/><g><use xlink:href="#ak" transform="matrix(1,0,0,1,765,245) translate(14.075000000000003 38.6)"/><use xlink:href="#X" transform="matrix(1,0,0,1,765,245) translate(56.075 38.6)"/></g><path d="M1040 280H881" stroke="#000" stroke-width="2" fill="none"/><path d="M1040 280l1.33 1H1040v-2h1.33zM895.27 284.64L881 280l14.27-4.64z"/><path d="M896.27 286L880 280.74v-1.46l16.27-5.28zm-12.03-6l10.03 3.26v-6.52z"/><g><use xlink:href="#K" transform="matrix(1,0,0,1,1015.325,254.40000000000003) translate(0 14.4)"/></g><path d="M820 320v79" stroke="#000" stroke-width="2" fill="none"/><path/><path d="M820 399l-4.64-14.27h9.28z"/><path d="M820.73 400h-1.46L814 383.73h12zm-4-14.27l3.27 10.03 3.26-10.03z"/><path d="M1020 80h200v80h-200z" stroke="#000" stroke-width="2" fill="#c1e4f7"/><path d="M1040 80v80m160-80v80" stroke="#000" stroke-width="2" fill="none"/><g><use xlink:href="#al" transform="matrix(1,0,0,1,1045,80) translate(15 32.8)"/><use xlink:href="#am" transform="matrix(1,0,0,1,1045,80) translate(65 32.8)"/><use xlink:href="#an" transform="matrix(1,0,0,1,1045,80) translate(95 32.8)"/><use xlink:href="#ao" transform="matrix(1,0,0,1,1045,80) translate(24.075000000000003 54.4)"/><use xlink:href="#ap" transform="matrix(1,0,0,1,1045,80) translate(75.075 54.4)"/></g><path d="M480 630h80v-10l20 20-20 20v-10h-80z" stroke="#000" stroke-width="2" fill="#c1e4f7"/><path d="M400 1100l80 60-80 60-80-60z" stroke="#c92d39" stroke-width="2" fill="#c7e8ac"/><g><use xlink:href="#aq" transform="matrix(1,0,0,1,325,1105) translate(17.075000000000003 58.6)"/><use xlink:href="#ar" transform="matrix(1,0,0,1,325,1105) translate(62.075 58.6)"/></g><path d="M320 440h-40v200h40" stroke="#000" stroke-width="2" fill="none"/><path d="M320 440l1.33 1H320v-2h1.33zM320 640l-14.27 4.64v-9.28z"/><path d="M320 638.95v2.1L304.73 646v-12zm-13.27 4.3l10.03-3.25-10.03-3.26z"/><g><use xlink:href="#as" transform="matrix(1,0,0,1,224.60201510184663,414.97632636134256) translate(0 14.4)"/><use xlink:href="#at" transform="matrix(1,0,0,1,224.60201510184663,414.97632636134256) translate(42.95 14.4)"/></g><path d="M400 1060v38.75" stroke="#000" stroke-width="2" fill="none"/><path d="M400 1060h-1v-.75zm1 0h-1l1-.75zM400 1098.75l-4.64-14.27h9.28z"/><path d="M400.52 1100.4l-.52-.4-.52.4-5.5-16.92h12.03zm-3.78-14.92l3.26 10.03 3.26-10.02z"/><path d="M400 1220v38.75" stroke="#000" stroke-width="2" fill="none"/><path d="M400 1220h-1v-.75zm1 0h-1l1-.75zM400 1258.75l-4.64-14.27h9.28z"/><path d="M400.52 1260.4l-.52-.4-.52.4-5.5-16.92h12.03zm-3.78-14.92l3.26 10.03 3.26-10.02z"/><g><use xlink:href="#K" transform="matrix(1,0,0,1,407.99999999999994,1214.2) translate(0 14.4)"/></g><path d="M320 1160h-40V915c-2.76 0-5-2.24-5-5s2.24-5 5-5v-85h40" stroke="#000" stroke-width="2" fill="none"/><path d="M320 1160l1.33 1H320v-2h1.33zM320 820l-14.27 4.64v-9.28z"/><path d="M320 818.95v2.1L304.73 826v-12zm-13.27 4.3l10.03-3.25-10.03-3.26z"/><g><use xlink:href="#M" transform="matrix(1,0,0,1,301.525,1134.4) translate(0 14.4)"/></g><path d="M520 1640v40h320V820h-80" stroke="#000" stroke-width="2" fill="none"/><path/><path d="M760 820l14.27-4.64v9.28z" stroke="#000" stroke-width="2"/><defs><path d="M24-231v-30h32v30H24zM24 0v-190h32V0H24" id="au"/><path d="M117-194c89-4 53 116 60 194h-32v-121c0-31-8-49-39-48C34-167 62-67 57 0H25l-1-190h30c1 10-1 24 2 32 11-22 29-35 61-36" id="av"/><path d="M59-47c-2 24 18 29 38 22v24C64 9 27 4 27-40v-127H5v-23h24l9-43h21v43h35v23H59v120" id="aw"/><path d="M-5 72V49h209v23H-5" id="ax"/><path d="M177-190C167-65 218 103 67 71c-23-6-38-20-44-43l32-5c15 47 100 32 89-28v-30C133-14 115 1 83 1 29 1 15-40 15-95c0-56 16-97 71-98 29-1 48 16 59 35 1-10 0-23 2-32h30zM94-22c36 0 50-32 50-73 0-42-14-75-50-75-39 0-46 34-46 75s6 73 46 73" id="ay"/><path d="M115-194c55 1 70 41 70 98S169 2 115 4C84 4 66-9 55-30l1 105H24l-1-265h31l2 30c10-21 28-34 59-34zm-8 174c40 0 45-34 45-75s-6-73-45-74c-42 0-51 32-51 76 0 43 10 73 51 73" id="az"/><path d="M100-194c62-1 85 37 85 99 1 63-27 99-86 99S16-35 15-95c0-66 28-99 85-99zM99-20c44 1 53-31 53-75 0-43-8-75-51-75s-53 32-53 75 10 74 51 75" id="aA"/><g id="a"><use transform="matrix(0.05,0,0,0.05,0,0)" xlink:href="#au"/><use transform="matrix(0.05,0,0,0.05,3.95,0)" xlink:href="#av"/><use transform="matrix(0.05,0,0,0.05,13.949999999999998,0)" xlink:href="#au"/><use transform="matrix(0.05,0,0,0.05,17.9,0)" xlink:href="#aw"/><use transform="matrix(0.05,0,0,0.05,22.9,0)" xlink:href="#ax"/><use transform="matrix(0.05,0,0,0.05,32.9,0)" xlink:href="#ay"/><use transform="matrix(0.05,0,0,0.05,42.9,0)" xlink:href="#az"/><use transform="matrix(0.05,0,0,0.05,52.900000000000006,0)" xlink:href="#au"/><use transform="matrix(0.05,0,0,0.05,56.85,0)" xlink:href="#aA"/></g><path d="M114-163C36-179 61-72 57 0H25l-1-190h30c1 12-1 29 2 39 6-27 23-49 58-41v29" id="aB"/><path d="M100-194c63 0 86 42 84 106H49c0 40 14 67 53 68 26 1 43-12 49-29l28 8c-11 28-37 45-77 45C44 4 14-33 15-96c1-61 26-98 85-98zm52 81c6-60-76-77-97-28-3 7-6 17-6 28h103" id="aC"/><path d="M141-36C126-15 110 5 73 4 37 3 15-17 15-53c-1-64 63-63 125-63 3-35-9-54-41-54-24 1-41 7-42 31l-33-3c5-37 33-52 76-52 45 0 72 20 72 64v82c-1 20 7 32 28 27v20c-31 9-61-2-59-35zM48-53c0 20 12 33 32 33 41-3 63-29 60-74-43 2-92-5-92 41" id="aD"/><path d="M85-194c31 0 48 13 60 33l-1-100h32l1 261h-30c-2-10 0-23-3-31C134-8 116 4 85 4 32 4 16-35 15-94c0-66 23-100 70-100zm9 24c-40 0-46 34-46 75 0 40 6 74 45 74 42 0 51-32 51-76 0-42-9-74-50-73" id="aE"/><g id="b"><use transform="matrix(0.05,0,0,0.05,0,0)" xlink:href="#aB"/><use transform="matrix(0.05,0,0,0.05,5.95,0)" xlink:href="#aC"/><use transform="matrix(0.05,0,0,0.05,15.949999999999998,0)" xlink:href="#aD"/><use transform="matrix(0.05,0,0,0.05,25.950000000000003,0)" xlink:href="#aE"/></g><g id="c"><use transform="matrix(0.05,0,0,0.05,0,0)" xlink:href="#aE"/><use transform="matrix(0.05,0,0,0.05,10,0)" xlink:href="#aA"/><use transform="matrix(0.05,0,0,0.05,20,0)" xlink:href="#aA"/><use transform="matrix(0.05,0,0,0.05,30,0)" xlink:href="#aB"/></g><path d="M135-143c-3-34-86-38-87 0 15 53 115 12 119 90S17 21 10-45l28-5c4 36 97 45 98 0-10-56-113-15-118-90-4-57 82-63 122-42 12 7 21 19 24 35" id="aF"/><g id="d"><use transform="matrix(0.05,0,0,0.05,0,0)" xlink:href="#aF"/><use transform="matrix(0.05,0,0,0.05,9,0)" xlink:href="#aC"/><use transform="matrix(0.05,0,0,0.05,19,0)" xlink:href="#av"/><use transform="matrix(0.05,0,0,0.05,29,0)" xlink:href="#aF"/><use transform="matrix(0.05,0,0,0.05,38,0)" xlink:href="#aA"/><use transform="matrix(0.05,0,0,0.05,48,0)" xlink:href="#aB"/></g><path d="M18-150v-26h174v26H18zm0 90v-26h174v26H18" id="aG"/><g id="e"><use transform="matrix(0.05,0,0,0.05,0,0)" xlink:href="#aG"/><use transform="matrix(0.05,0,0,0.05,10.5,0)" xlink:href="#aG"/></g><path d="M101-251c68 0 85 55 85 127S166 4 100 4C33 4 14-52 14-124c0-73 17-127 87-127zm-1 229c47 0 54-49 54-102s-4-102-53-102c-51 0-55 48-55 102 0 53 5 102 54 102" id="aH"/><path d="M103-251c84 0 111 97 45 133-19 10-37 24-39 52H78c0-63 77-55 77-114 0-30-21-42-52-43-32 0-53 17-56 46l-32-2c7-45 34-72 88-72zM77 0v-35h34V0H77" id="aI"/><g id="f"><use transform="matrix(0.05,0,0,0.05,0,0)" xlink:href="#aH"/><use transform="matrix(0.05,0,0,0.05,10,0)" xlink:href="#aI"/></g><path d="M24 0v-261h32V0H24" id="aJ"/><g id="g"><use transform="matrix(0.05,0,0,0.05,0,0)" xlink:href="#aw"/><use transform="matrix(0.05,0,0,0.05,5,0)" xlink:href="#aA"/><use transform="matrix(0.05,0,0,0.05,15,0)" xlink:href="#ay"/><use transform="matrix(0.05,0,0,0.05,25,0)" xlink:href="#ay"/><use transform="matrix(0.05,0,0,0.05,35,0)" xlink:href="#aJ"/><use transform="matrix(0.05,0,0,0.05,38.95,0)" xlink:href="#aC"/></g><g id="h"><use transform="matrix(0.05,0,0,0.05,0,0)" xlink:href="#aE"/><use transform="matrix(0.05,0,0,0.05,10,0)" xlink:href="#aA"/><use transform="matrix(0.05,0,0,0.05,20,0)" xlink:href="#aA"/><use transform="matrix(0.05,0,0,0.05,30,0)" xlink:href="#aB"/></g><path d="M96-169c-40 0-48 33-48 73s9 75 48 75c24 0 41-14 43-38l32 2c-6 37-31 61-74 61-59 0-76-41-82-99-10-93 101-131 147-64 4 7 5 14 7 22l-32 3c-4-21-16-35-41-35" id="aK"/><g id="i"><use transform="matrix(0.05,0,0,0.05,0,0)" xlink:href="#aE"/><use transform="matrix(0.05,0,0,0.05,10,0)" xlink:href="#aA"/><use transform="matrix(0.05,0,0,0.05,20,0)" xlink:href="#aA"/><use transform="matrix(0.05,0,0,0.05,30,0)" xlink:href="#aB"/><use transform="matrix(0.05,0,0,0.05,35.95,0)" xlink:href="#ax"/><use transform="matrix(0.05,0,0,0.05,45.95,0)" xlink:href="#aK"/><use transform="matrix(0.05,0,0,0.05,54.95,0)" xlink:href="#aJ"/><use transform="matrix(0.05,0,0,0.05,58.900000000000006,0)" xlink:href="#aA"/><use transform="matrix(0.05,0,0,0.05,68.9,0)" xlink:href="#aF"/><use transform="matrix(0.05,0,0,0.05,77.9,0)" xlink:href="#aC"/><use transform="matrix(0.05,0,0,0.05,87.9,0)" xlink:href="#aE"/></g><use transform="matrix(0.05,0,0,0.05,0,0)" xlink:href="#aG" id="j"/><path d="M127-220V0H93v-220H8v-28h204v28h-85" id="aL"/><path d="M233-177c-1 41-23 64-60 70L243 0h-38l-65-103H63V0H30v-248c88 3 205-21 203 71zM63-129c60-2 137 13 137-47 0-61-80-42-137-45v92" id="aM"/><path d="M232-93c-1 65-40 97-104 97C67 4 28-28 28-90v-158h33c8 89-33 224 67 224 102 0 64-133 71-224h33v155" id="aN"/><path d="M30 0v-248h187v28H63v79h144v27H63v87h162V0H30" id="aO"/><g id="k"><use transform="matrix(0.05,0,0,0.05,0,0)" xlink:href="#aL"/><use transform="matrix(0.05,0,0,0.05,10.950000000000001,0)" xlink:href="#aM"/><use transform="matrix(0.05,0,0,0.05,23.900000000000002,0)" xlink:href="#aN"/><use transform="matrix(0.05,0,0,0.05,36.85,0)" xlink:href="#aO"/></g><path d="M63-220v92h138v28H63V0H30v-248h175v28H63" id="aP"/><path d="M205 0l-28-72H64L36 0H1l101-248h38L239 0h-34zm-38-99l-47-123c-12 45-31 82-46 123h93" id="aQ"/><path d="M30 0v-248h33v221h125V0H30" id="aR"/><path d="M185-189c-5-48-123-54-124 2 14 75 158 14 163 119 3 78-121 87-175 55-17-10-28-26-33-46l33-7c5 56 141 63 141-1 0-78-155-14-162-118-5-82 145-84 179-34 5 7 8 16 11 25" id="aS"/><g id="l"><use transform="matrix(0.05,0,0,0.05,0,0)" xlink:href="#aP"/><use transform="matrix(0.05,0,0,0.05,9.950000000000001,0)" xlink:href="#aQ"/><use transform="matrix(0.05,0,0,0.05,21.950000000000003,0)" xlink:href="#aR"/><use transform="matrix(0.05,0,0,0.05,31.950000000000003,0)" xlink:href="#aS"/><use transform="matrix(0.05,0,0,0.05,43.95,0)" xlink:href="#aO"/></g><path d="M84 4C-5 8 30-112 23-190h32v120c0 31 7 50 39 49 72-2 45-101 50-169h31l1 190h-30c-1-10 1-25-2-33-11 22-28 36-60 37" id="aT"/><g id="m"><use transform="matrix(0.05,0,0,0.05,0,0)" xlink:href="#aS"/><use transform="matrix(0.05,0,0,0.05,12,0)" xlink:href="#aC"/><use transform="matrix(0.05,0,0,0.05,22,0)" xlink:href="#aw"/><use transform="matrix(0.05,0,0,0.05,27,0)" xlink:href="#aT"/><use transform="matrix(0.05,0,0,0.05,37,0)" xlink:href="#az"/></g><path d="M143 4C61 4 22-44 18-125c-5-107 100-154 193-111 17 8 29 25 37 43l-32 9c-13-25-37-40-76-40-61 0-88 39-88 99 0 61 29 100 91 101 35 0 62-11 79-27v-45h-74v-28h105v86C228-13 192 4 143 4" id="aU"/><path d="M30-248c87 1 191-15 191 75 0 78-77 80-158 76V0H30v-248zm33 125c57 0 124 11 124-50 0-59-68-47-124-48v98" id="aV"/><path d="M33 0v-248h34V0H33" id="aW"/><path d="M140-251c81 0 123 46 123 126C263-46 219 4 140 4 59 4 17-45 17-125s42-126 123-126zm0 227c63 0 89-41 89-101s-29-99-89-99c-61 0-89 39-89 99S79-25 140-24" id="aX"/><g id="n"><use transform="matrix(0.05,0,0,0.05,0,0)" xlink:href="#aU"/><use transform="matrix(0.05,0,0,0.05,14,0)" xlink:href="#aV"/><use transform="matrix(0.05,0,0,0.05,26,0)" xlink:href="#aW"/><use transform="matrix(0.05,0,0,0.05,31,0)" xlink:href="#aX"/></g><path d="M101-251c82-7 93 87 43 132L82-64C71-53 59-42 53-27h129V0H18c2-99 128-94 128-182 0-28-16-43-45-43s-46 15-49 41l-32-3c6-41 34-60 81-64" id="aY"/><path d="M54-142c48-35 137-8 131 61C196 18 31 33 14-55l32-4c7 23 22 37 52 37 35-1 51-22 54-58 4-55-73-65-99-34H22l8-134h141v27H59" id="aZ"/><g id="o"><use transform="matrix(0.05,0,0,0.05,0,0)" xlink:href="#aY"/><use transform="matrix(0.05,0,0,0.05,10,0)" xlink:href="#aZ"/></g><g id="p"><use transform="matrix(0.05,0,0,0.05,0,0)" xlink:href="#aD"/><use transform="matrix(0.05,0,0,0.05,10,0)" xlink:href="#aF"/></g><path d="M108 0H70L1-190h34L89-25l56-165h34" id="ba"/><g id="q"><use transform="matrix(0.05,0,0,0.05,0,0)" xlink:href="#aC"/><use transform="matrix(0.05,0,0,0.05,10,0)" xlink:href="#ba"/><use transform="matrix(0.05,0,0,0.05,19,0)" xlink:href="#aC"/><use transform="matrix(0.05,0,0,0.05,29,0)" xlink:href="#av"/><use transform="matrix(0.05,0,0,0.05,39,0)" xlink:href="#aw"/></g><g id="r"><use transform="matrix(0.05,0,0,0.05,0,0)" xlink:href="#aw"/><use transform="matrix(0.05,0,0,0.05,5,0)" xlink:href="#aB"/><use transform="matrix(0.05,0,0,0.05,10.95,0)" xlink:href="#au"/><use transform="matrix(0.05,0,0,0.05,14.899999999999999,0)" xlink:href="#ay"/><use transform="matrix(0.05,0,0,0.05,24.9,0)" xlink:href="#ay"/><use transform="matrix(0.05,0,0,0.05,34.9,0)" xlink:href="#aC"/><use transform="matrix(0.05,0,0,0.05,44.9,0)" xlink:href="#aB"/><use transform="matrix(0.05,0,0,0.05,50.85,0)" xlink:href="#aC"/><use transform="matrix(0.05,0,0,0.05,60.85,0)" xlink:href="#aE"/></g><g id="s"><use transform="matrix(0.05,0,0,0.05,0,0)" xlink:href="#au"/><use transform="matrix(0.05,0,0,0.05,3.95,0)" xlink:href="#av"/><use transform="matrix(0.05,0,0,0.05,13.949999999999998,0)" xlink:href="#az"/><use transform="matrix(0.05,0,0,0.05,23.95,0)" xlink:href="#aT"/><use transform="matrix(0.05,0,0,0.05,33.95,0)" xlink:href="#aw"/></g><g id="t"><use transform="matrix(0.05,0,0,0.05,0,0)" xlink:href="#aS"/><use transform="matrix(0.05,0,0,0.05,12,0)" xlink:href="#aw"/><use transform="matrix(0.05,0,0,0.05,17,0)" xlink:href="#aD"/><use transform="matrix(0.05,0,0,0.05,27,0)" xlink:href="#aB"/><use transform="matrix(0.05,0,0,0.05,32.95,0)" xlink:href="#aw"/></g><path d="M210-169c-67 3-38 105-44 169h-31v-121c0-29-5-50-35-48C34-165 62-65 56 0H25l-1-190h30c1 10-1 24 2 32 10-44 99-50 107 0 11-21 27-35 58-36 85-2 47 119 55 194h-31v-121c0-29-5-49-35-48" id="bb"/><g id="u"><use transform="matrix(0.05,0,0,0.05,0,0)" xlink:href="#bb"/><use transform="matrix(0.05,0,0,0.05,14.950000000000001,0)" xlink:href="#aD"/><use transform="matrix(0.05,0,0,0.05,24.950000000000003,0)" xlink:href="#au"/><use transform="matrix(0.05,0,0,0.05,28.900000000000002,0)" xlink:href="#av"/></g><g id="v"><use transform="matrix(0.05,0,0,0.05,0,0)" xlink:href="#aJ"/><use transform="matrix(0.05,0,0,0.05,3.95,0)" xlink:href="#aA"/><use transform="matrix(0.05,0,0,0.05,13.949999999999998,0)" xlink:href="#aA"/><use transform="matrix(0.05,0,0,0.05,23.95,0)" xlink:href="#az"/></g><path d="M266 0h-40l-56-210L115 0H75L2-248h35L96-30l15-64 43-154h32l59 218 59-218h35" id="bc"/><g id="w"><use transform="matrix(0.05,0,0,0.05,0,0)" xlink:href="#bc"/><use transform="matrix(0.05,0,0,0.05,16.3,0)" xlink:href="#aD"/><use transform="matrix(0.05,0,0,0.05,26.3,0)" xlink:href="#au"/><use transform="matrix(0.05,0,0,0.05,30.25,0)" xlink:href="#aw"/></g><path d="M101-234c-31-9-42 10-38 44h38v23H63V0H32v-167H5v-23h27c-7-52 17-82 69-68v24" id="bd"/><g id="x"><use transform="matrix(0.05,0,0,0.05,0,0)" xlink:href="#bd"/><use transform="matrix(0.05,0,0,0.05,5,0)" xlink:href="#aA"/><use transform="matrix(0.05,0,0,0.05,15,0)" xlink:href="#aB"/></g><g id="y"><use transform="matrix(0.05,0,0,0.05,0,0)" xlink:href="#aK"/><use transform="matrix(0.05,0,0,0.05,9,0)" xlink:href="#aA"/><use transform="matrix(0.05,0,0,0.05,19,0)" xlink:href="#bb"/><use transform="matrix(0.05,0,0,0.05,33.95,0)" xlink:href="#bb"/><use transform="matrix(0.05,0,0,0.05,48.900000000000006,0)" xlink:href="#aD"/><use transform="matrix(0.05,0,0,0.05,58.900000000000006,0)" xlink:href="#av"/><use transform="matrix(0.05,0,0,0.05,68.9,0)" xlink:href="#aE"/></g><path fill="#c92d39" d="M96-169c-40 0-48 33-48 73s9 75 48 75c24 0 41-14 43-38l32 2c-6 37-31 61-74 61-59 0-76-41-82-99-10-93 101-131 147-64 4 7 5 14 7 22l-32 3c-4-21-16-35-41-35" id="be"/><path fill="#c92d39" d="M100-194c62-1 85 37 85 99 1 63-27 99-86 99S16-35 15-95c0-66 28-99 85-99zM99-20c44 1 53-31 53-75 0-43-8-75-51-75s-53 32-53 75 10 74 51 75" id="bf"/><path fill="#c92d39" d="M210-169c-67 3-38 105-44 169h-31v-121c0-29-5-50-35-48C34-165 62-65 56 0H25l-1-190h30c1 10-1 24 2 32 10-44 99-50 107 0 11-21 27-35 58-36 85-2 47 119 55 194h-31v-121c0-29-5-49-35-48" id="bg"/><path fill="#c92d39" d="M141-36C126-15 110 5 73 4 37 3 15-17 15-53c-1-64 63-63 125-63 3-35-9-54-41-54-24 1-41 7-42 31l-33-3c5-37 33-52 76-52 45 0 72 20 72 64v82c-1 20 7 32 28 27v20c-31 9-61-2-59-35zM48-53c0 20 12 33 32 33 41-3 63-29 60-74-43 2-92-5-92 41" id="bh"/><path fill="#c92d39" d="M117-194c89-4 53 116 60 194h-32v-121c0-31-8-49-39-48C34-167 62-67 57 0H25l-1-190h30c1 10-1 24 2 32 11-22 29-35 61-36" id="bi"/><path fill="#c92d39" d="M85-194c31 0 48 13 60 33l-1-100h32l1 261h-30c-2-10 0-23-3-31C134-8 116 4 85 4 32 4 16-35 15-94c0-66 23-100 70-100zm9 24c-40 0-46 34-46 75 0 40 6 74 45 74 42 0 51-32 51-76 0-42-9-74-50-73" id="bj"/><g id="z"><use transform="matrix(0.05,0,0,0.05,0,0)" xlink:href="#be"/><use transform="matrix(0.05,0,0,0.05,9,0)" xlink:href="#bf"/><use transform="matrix(0.05,0,0,0.05,19,0)" xlink:href="#bg"/><use transform="matrix(0.05,0,0,0.05,33.95,0)" xlink:href="#bg"/><use transform="matrix(0.05,0,0,0.05,48.900000000000006,0)" xlink:href="#bh"/><use transform="matrix(0.05,0,0,0.05,58.900000000000006,0)" xlink:href="#bi"/><use transform="matrix(0.05,0,0,0.05,68.9,0)" xlink:href="#bj"/></g><path fill="#c92d39" d="M101-234c-31-9-42 10-38 44h38v23H63V0H32v-167H5v-23h27c-7-52 17-82 69-68v24" id="bk"/><path fill="#c92d39" d="M114-163C36-179 61-72 57 0H25l-1-190h30c1 12-1 29 2 39 6-27 23-49 58-41v29" id="bl"/><g id="A"><use transform="matrix(0.05,0,0,0.05,0,0)" xlink:href="#bk"/><use transform="matrix(0.05,0,0,0.05,5,0)" xlink:href="#bl"/><use transform="matrix(0.05,0,0,0.05,10.95,0)" xlink:href="#bf"/><use transform="matrix(0.05,0,0,0.05,20.95,0)" xlink:href="#bg"/></g><path fill="#c92d39" d="M206 0h-36l-40-164L89 0H53L-1-190h32L70-26l43-164h34l41 164 42-164h31" id="bm"/><path fill="#c92d39" d="M100-194c63 0 86 42 84 106H49c0 40 14 67 53 68 26 1 43-12 49-29l28 8c-11 28-37 45-77 45C44 4 14-33 15-96c1-61 26-98 85-98zm52 81c6-60-76-77-97-28-3 7-6 17-6 28h103" id="bn"/><path fill="#c92d39" d="M115-194c53 0 69 39 70 98 0 66-23 100-70 100C84 3 66-7 56-30L54 0H23l1-261h32v101c10-23 28-34 59-34zm-8 174c40 0 45-34 45-75 0-40-5-75-45-74-42 0-51 32-51 76 0 43 10 73 51 73" id="bo"/><path fill="#c92d39" d="M115-194c55 1 70 41 70 98S169 2 115 4C84 4 66-9 55-30l1 105H24l-1-265h31l2 30c10-21 28-34 59-34zm-8 174c40 0 45-34 45-75s-6-73-45-74c-42 0-51 32-51 76 0 43 10 73 51 73" id="bp"/><path fill="#c92d39" d="M177-190C167-65 218 103 67 71c-23-6-38-20-44-43l32-5c15 47 100 32 89-28v-30C133-14 115 1 83 1 29 1 15-40 15-95c0-56 16-97 71-98 29-1 48 16 59 35 1-10 0-23 2-32h30zM94-22c36 0 50-32 50-73 0-42-14-75-50-75-39 0-46 34-46 75s6 73 46 73" id="bq"/><path fill="#c92d39" d="M103-251c84 0 111 97 45 133-19 10-37 24-39 52H78c0-63 77-55 77-114 0-30-21-42-52-43-32 0-53 17-56 46l-32-2c7-45 34-72 88-72zM77 0v-35h34V0H77" id="br"/><g id="B"><use transform="matrix(0.05,0,0,0.05,0,0)" xlink:href="#bm"/><use transform="matrix(0.05,0,0,0.05,12.950000000000001,0)" xlink:href="#bn"/><use transform="matrix(0.05,0,0,0.05,22.950000000000003,0)" xlink:href="#bo"/><use transform="matrix(0.05,0,0,0.05,32.95,0)" xlink:href="#bp"/><use transform="matrix(0.05,0,0,0.05,42.95,0)" xlink:href="#bh"/><use transform="matrix(0.05,0,0,0.05,52.95,0)" xlink:href="#bq"/><use transform="matrix(0.05,0,0,0.05,62.95,0)" xlink:href="#bn"/><use transform="matrix(0.05,0,0,0.05,72.95,0)" xlink:href="#br"/></g><g id="C"><use transform="matrix(0.05,0,0,0.05,0,0)" xlink:href="#aA"/><use transform="matrix(0.05,0,0,0.05,10,0)" xlink:href="#az"/><use transform="matrix(0.05,0,0,0.05,20,0)" xlink:href="#aC"/><use transform="matrix(0.05,0,0,0.05,30,0)" xlink:href="#av"/><use transform="matrix(0.05,0,0,0.05,40,0)" xlink:href="#aI"/></g><g id="D"><use transform="matrix(0.05,0,0,0.05,0,0)" xlink:href="#aK"/><use transform="matrix(0.05,0,0,0.05,9,0)" xlink:href="#aJ"/><use transform="matrix(0.05,0,0,0.05,12.949999999999998,0)" xlink:href="#aA"/><use transform="matrix(0.05,0,0,0.05,22.95,0)" xlink:href="#aF"/><use transform="matrix(0.05,0,0,0.05,31.950000000000003,0)" xlink:href="#aC"/><use transform="matrix(0.05,0,0,0.05,41.95,0)" xlink:href="#aI"/></g><path d="M145-31C134-9 116 4 85 4 32 4 16-35 15-94c0-59 17-99 70-100 32-1 48 14 60 33 0-11-1-24 2-32h30l-1 268h-32zM93-21c41 0 51-33 51-76s-8-73-50-73c-40 0-46 35-46 75s5 74 45 74" id="bs"/><g id="E"><use transform="matrix(0.05,0,0,0.05,0,0)" xlink:href="#bs"/><use transform="matrix(0.05,0,0,0.05,10,0)" xlink:href="#aT"/><use transform="matrix(0.05,0,0,0.05,20,0)" xlink:href="#au"/><use transform="matrix(0.05,0,0,0.05,23.95,0)" xlink:href="#aw"/><use transform="matrix(0.05,0,0,0.05,28.950000000000003,0)" xlink:href="#aI"/></g><path d="M212-179c-10-28-35-45-73-45-59 0-87 40-87 99 0 60 29 101 89 101 43 0 62-24 78-52l27 14C228-24 195 4 139 4 59 4 22-46 18-125c-6-104 99-153 187-111 19 9 31 26 39 46" id="bt"/><g id="F"><use transform="matrix(0.05,0,0,0.05,0,0)" xlink:href="#bt"/><use transform="matrix(0.05,0,0,0.05,12.950000000000001,0)" xlink:href="#aJ"/><use transform="matrix(0.05,0,0,0.05,16.900000000000002,0)" xlink:href="#aC"/><use transform="matrix(0.05,0,0,0.05,26.900000000000002,0)" xlink:href="#aD"/><use transform="matrix(0.05,0,0,0.05,36.900000000000006,0)" xlink:href="#av"/><use transform="matrix(0.05,0,0,0.05,46.900000000000006,0)" xlink:href="#aT"/><use transform="matrix(0.05,0,0,0.05,56.900000000000006,0)" xlink:href="#az"/></g><g id="G"><use transform="matrix(0.05,0,0,0.05,0,0)" xlink:href="#aD"/><use transform="matrix(0.05,0,0,0.05,10,0)" xlink:href="#av"/><use transform="matrix(0.05,0,0,0.05,20,0)" xlink:href="#aE"/></g><path d="M141 0L90-78 38 0H4l68-98-65-92h35l48 74 47-74h35l-64 92 68 98h-35" id="bu"/><g id="H"><use transform="matrix(0.05,0,0,0.05,0,0)" xlink:href="#aC"/><use transform="matrix(0.05,0,0,0.05,10,0)" xlink:href="#bu"/><use transform="matrix(0.05,0,0,0.05,19,0)" xlink:href="#au"/><use transform="matrix(0.05,0,0,0.05,22.95,0)" xlink:href="#aw"/></g><g id="I"><use transform="matrix(0.05,0,0,0.05,0,0)" xlink:href="#aE"/><use transform="matrix(0.05,0,0,0.05,10,0)" xlink:href="#aA"/><use transform="matrix(0.05,0,0,0.05,20,0)" xlink:href="#aA"/><use transform="matrix(0.05,0,0,0.05,30,0)" xlink:href="#aB"/></g><g id="J"><use transform="matrix(0.05,0,0,0.05,0,0)" xlink:href="#aK"/><use transform="matrix(0.05,0,0,0.05,9,0)" xlink:href="#aJ"/><use transform="matrix(0.05,0,0,0.05,12.949999999999998,0)" xlink:href="#aA"/><use transform="matrix(0.05,0,0,0.05,22.95,0)" xlink:href="#aF"/><use transform="matrix(0.05,0,0,0.05,31.950000000000003,0)" xlink:href="#aC"/><use transform="matrix(0.05,0,0,0.05,41.95,0)" xlink:href="#aE"/><use transform="matrix(0.05,0,0,0.05,51.95,0)" xlink:href="#aI"/></g><path d="M137-103V0h-34v-103L8-248h37l75 118 75-118h37" id="bv"/><g id="K"><use transform="matrix(0.05,0,0,0.05,0,0)" xlink:href="#bv"/><use transform="matrix(0.05,0,0,0.05,10.35,0)" xlink:href="#aC"/><use transform="matrix(0.05,0,0,0.05,20.35,0)" xlink:href="#aF"/></g><g id="L"><use transform="matrix(0.05,0,0,0.05,0,0)" xlink:href="#aA"/><use transform="matrix(0.05,0,0,0.05,10,0)" xlink:href="#az"/><use transform="matrix(0.05,0,0,0.05,20,0)" xlink:href="#aC"/><use transform="matrix(0.05,0,0,0.05,30,0)" xlink:href="#av"/><use transform="matrix(0.05,0,0,0.05,40,0)" xlink:href="#aI"/></g><path d="M190 0L58-211 59 0H30v-248h39L202-35l-2-213h31V0h-41" id="bw"/><g id="M"><use transform="matrix(0.05,0,0,0.05,0,0)" xlink:href="#bw"/><use transform="matrix(0.05,0,0,0.05,12.950000000000001,0)" xlink:href="#aA"/></g><path d="M126-127c33 6 58 20 58 59 0 88-139 92-164 29-3-8-5-16-6-25l32-3c6 27 21 44 54 44 32 0 52-15 52-46 0-38-36-46-79-43v-28c39 1 72-4 72-42 0-27-17-43-46-43-28 0-47 15-49 41l-32-3c6-42 35-63 81-64 48-1 79 21 79 65 0 36-21 52-52 59" id="bx"/><g id="N"><use transform="matrix(0.05,0,0,0.05,0,0)" xlink:href="#aY"/><use transform="matrix(0.05,0,0,0.05,10,0)" xlink:href="#bx"/></g><g id="O"><use transform="matrix(0.05,0,0,0.05,0,0)" xlink:href="#aD"/><use transform="matrix(0.05,0,0,0.05,10,0)" xlink:href="#aF"/></g><g id="P"><use transform="matrix(0.05,0,0,0.05,0,0)" xlink:href="#aA"/><use transform="matrix(0.05,0,0,0.05,10,0)" xlink:href="#aT"/><use transform="matrix(0.05,0,0,0.05,20,0)" xlink:href="#aw"/><use transform="matrix(0.05,0,0,0.05,25,0)" xlink:href="#az"/><use transform="matrix(0.05,0,0,0.05,35,0)" xlink:href="#aT"/><use transform="matrix(0.05,0,0,0.05,45,0)" xlink:href="#aw"/></g><g id="Q"><use transform="matrix(0.05,0,0,0.05,0,0)" xlink:href="#aw"/><use transform="matrix(0.05,0,0,0.05,5,0)" xlink:href="#aA"/></g><path d="M106-169C34-169 62-67 57 0H25v-261h32l-1 103c12-21 28-36 61-36 89 0 53 116 60 194h-32v-121c2-32-8-49-39-48" id="by"/><g id="R"><use transform="matrix(0.05,0,0,0.05,0,0)" xlink:href="#aJ"/><use transform="matrix(0.05,0,0,0.05,3.95,0)" xlink:href="#au"/><use transform="matrix(0.05,0,0,0.05,7.9,0)" xlink:href="#ay"/><use transform="matrix(0.05,0,0,0.05,17.9,0)" xlink:href="#by"/><use transform="matrix(0.05,0,0,0.05,27.899999999999995,0)" xlink:href="#aw"/></g><path d="M179-190L93 31C79 59 56 82 12 73V49c39 6 53-20 64-50L1-190h34L92-34l54-156h33" id="bz"/><path d="M33 0v-38h34V0H33" id="bA"/><g id="S"><use transform="matrix(0.05,0,0,0.05,0,0)" xlink:href="#aB"/><use transform="matrix(0.05,0,0,0.05,5.95,0)" xlink:href="#aC"/><use transform="matrix(0.05,0,0,0.05,15.949999999999998,0)" xlink:href="#aJ"/><use transform="matrix(0.05,0,0,0.05,19.9,0)" xlink:href="#aD"/><use transform="matrix(0.05,0,0,0.05,29.899999999999995,0)" xlink:href="#bz"/><use transform="matrix(0.05,0,0,0.05,37.55,0)" xlink:href="#bA"/></g><path d="M155-56V0h-30v-56H8v-25l114-167h33v167h35v25h-35zm-30-156c-27 46-58 90-88 131h88v-131" id="bB"/><g id="T"><use transform="matrix(0.05,0,0,0.05,0,0)" xlink:href="#aY"/><use transform="matrix(0.05,0,0,0.05,10,0)" xlink:href="#bB"/></g><g id="U"><use transform="matrix(0.05,0,0,0.05,0,0)" xlink:href="#au"/><use transform="matrix(0.05,0,0,0.05,3.95,0)" xlink:href="#av"/><use transform="matrix(0.05,0,0,0.05,13.949999999999998,0)" xlink:href="#az"/><use transform="matrix(0.05,0,0,0.05,23.95,0)" xlink:href="#aT"/><use transform="matrix(0.05,0,0,0.05,33.95,0)" xlink:href="#aw"/></g><g id="V"><use transform="matrix(0.05,0,0,0.05,0,0)" xlink:href="#bd"/><use transform="matrix(0.05,0,0,0.05,5,0)" xlink:href="#aB"/><use transform="matrix(0.05,0,0,0.05,10.95,0)" xlink:href="#aA"/><use transform="matrix(0.05,0,0,0.05,20.95,0)" xlink:href="#bb"/></g><g id="W"><use transform="matrix(0.05,0,0,0.05,0,0)" xlink:href="#aF"/><use transform="matrix(0.05,0,0,0.05,9,0)" xlink:href="#aC"/><use transform="matrix(0.05,0,0,0.05,19,0)" xlink:href="#av"/><use transform="matrix(0.05,0,0,0.05,29,0)" xlink:href="#aF"/><use transform="matrix(0.05,0,0,0.05,38,0)" xlink:href="#aA"/><use transform="matrix(0.05,0,0,0.05,48,0)" xlink:href="#aB"/><use transform="matrix(0.05,0,0,0.05,52.95,0)" xlink:href="#bA"/></g><g id="X"><use transform="matrix(0.05,0,0,0.05,0,0)" xlink:href="#aw"/><use transform="matrix(0.05,0,0,0.05,5,0)" xlink:href="#au"/><use transform="matrix(0.05,0,0,0.05,8.95,0)" xlink:href="#bb"/><use transform="matrix(0.05,0,0,0.05,23.9,0)" xlink:href="#aC"/><use transform="matrix(0.05,0,0,0.05,33.9,0)" xlink:href="#aB"/></g><g id="Y"><use transform="matrix(0.05,0,0,0.05,0,0)" xlink:href="#aw"/><use transform="matrix(0.05,0,0,0.05,5,0)" xlink:href="#au"/><use transform="matrix(0.05,0,0,0.05,8.95,0)" xlink:href="#bb"/><use transform="matrix(0.05,0,0,0.05,23.9,0)" xlink:href="#aC"/></g><g id="Z"><use transform="matrix(0.05,0,0,0.05,0,0)" xlink:href="#aG"/><use transform="matrix(0.05,0,0,0.05,10.5,0)" xlink:href="#aG"/></g><g id="aa"><use transform="matrix(0.05,0,0,0.05,0,0)" xlink:href="#aZ"/><use transform="matrix(0.05,0,0,0.05,10,0)" xlink:href="#bb"/><use transform="matrix(0.05,0,0,0.05,24.950000000000003,0)" xlink:href="#au"/><use transform="matrix(0.05,0,0,0.05,28.900000000000002,0)" xlink:href="#av"/></g><g id="ab"><use transform="matrix(0.05,0,0,0.05,0,0)" xlink:href="#aS"/><use transform="matrix(0.05,0,0,0.05,12,0)" xlink:href="#aC"/><use transform="matrix(0.05,0,0,0.05,22,0)" xlink:href="#av"/><use transform="matrix(0.05,0,0,0.05,32,0)" xlink:href="#aE"/></g><g id="ac"><use transform="matrix(0.05,0,0,0.05,0,0)" xlink:href="#bb"/><use transform="matrix(0.05,0,0,0.05,14.950000000000001,0)" xlink:href="#aC"/><use transform="matrix(0.05,0,0,0.05,24.950000000000003,0)" xlink:href="#aF"/><use transform="matrix(0.05,0,0,0.05,33.95,0)" xlink:href="#aF"/><use transform="matrix(0.05,0,0,0.05,42.95,0)" xlink:href="#aD"/><use transform="matrix(0.05,0,0,0.05,52.95,0)" xlink:href="#ay"/><use transform="matrix(0.05,0,0,0.05,62.95,0)" xlink:href="#aC"/></g><g id="ad"><use transform="matrix(0.05,0,0,0.05,0,0)" xlink:href="#aF"/><use transform="matrix(0.05,0,0,0.05,9,0)" xlink:href="#bb"/><use transform="matrix(0.05,0,0,0.05,23.950000000000003,0)" xlink:href="#aF"/><use transform="matrix(0.05,0,0,0.05,32.95,0)" xlink:href="#aI"/></g><g id="ae"><use transform="matrix(0.05,0,0,0.05,0,0)" xlink:href="#aC"/><use transform="matrix(0.05,0,0,0.05,10,0)" xlink:href="#bb"/><use transform="matrix(0.05,0,0,0.05,24.950000000000003,0)" xlink:href="#aD"/><use transform="matrix(0.05,0,0,0.05,34.95,0)" xlink:href="#au"/><use transform="matrix(0.05,0,0,0.05,38.900000000000006,0)" xlink:href="#aJ"/><use transform="matrix(0.05,0,0,0.05,42.85000000000001,0)" xlink:href="#aI"/></g><g id="af"><use transform="matrix(0.05,0,0,0.05,0,0)" xlink:href="#aY"/><use transform="matrix(0.05,0,0,0.05,10,0)" xlink:href="#bb"/><use transform="matrix(0.05,0,0,0.05,24.950000000000003,0)" xlink:href="#au"/><use transform="matrix(0.05,0,0,0.05,28.900000000000002,0)" xlink:href="#av"/><use transform="matrix(0.05,0,0,0.05,38.900000000000006,0)" xlink:href="#aI"/></g><g id="ag"><use transform="matrix(0.05,0,0,0.05,0,0)" xlink:href="#aM"/><use transform="matrix(0.05,0,0,0.05,12.950000000000001,0)" xlink:href="#aC"/><use transform="matrix(0.05,0,0,0.05,22.950000000000003,0)" xlink:href="#aK"/><use transform="matrix(0.05,0,0,0.05,31.950000000000003,0)" xlink:href="#aC"/><use transform="matrix(0.05,0,0,0.05,41.95,0)" xlink:href="#au"/><use transform="matrix(0.05,0,0,0.05,45.900000000000006,0)" xlink:href="#ba"/><use transform="matrix(0.05,0,0,0.05,54.900000000000006,0)" xlink:href="#aC"/><use transform="matrix(0.05,0,0,0.05,64.9,0)" xlink:href="#aE"/></g><path d="M109-170H84l-4-78h32zm-65 0H19l-4-78h33" id="bC"/><path d="M47-170H22l-4-78h33" id="bD"/><g id="ah"><use transform="matrix(0.05,0,0,0.05,0,0)" xlink:href="#bC"/><use transform="matrix(0.05,0,0,0.05,6.3500000000000005,0)" xlink:href="#aW"/><use transform="matrix(0.05,0,0,0.05,11.350000000000001,0)" xlink:href="#bD"/><use transform="matrix(0.05,0,0,0.05,14.75,0)" xlink:href="#bb"/></g><g id="ai"><use transform="matrix(0.05,0,0,0.05,0,0)" xlink:href="#by"/><use transform="matrix(0.05,0,0,0.05,10,0)" xlink:href="#aA"/><use transform="matrix(0.05,0,0,0.05,20,0)" xlink:href="#bb"/><use transform="matrix(0.05,0,0,0.05,34.95,0)" xlink:href="#aC"/><use transform="matrix(0.05,0,0,0.05,44.95,0)" xlink:href="#bC"/><use transform="matrix(0.05,0,0,0.05,51.300000000000004,0)" xlink:href="#aI"/></g><g id="aj"><use transform="matrix(0.05,0,0,0.05,0,0)" xlink:href="#aS"/><use transform="matrix(0.05,0,0,0.05,12,0)" xlink:href="#aw"/><use transform="matrix(0.05,0,0,0.05,17,0)" xlink:href="#aA"/><use transform="matrix(0.05,0,0,0.05,27,0)" xlink:href="#az"/></g><g id="ak"><use transform="matrix(0.05,0,0,0.05,0,0)" xlink:href="#aS"/><use transform="matrix(0.05,0,0,0.05,12,0)" xlink:href="#aw"/><use transform="matrix(0.05,0,0,0.05,17,0)" xlink:href="#aA"/><use transform="matrix(0.05,0,0,0.05,27,0)" xlink:href="#az"/></g><g id="al"><use transform="matrix(0.05,0,0,0.05,0,0)" xlink:href="#aU"/><use transform="matrix(0.05,0,0,0.05,14,0)" xlink:href="#aV"/><use transform="matrix(0.05,0,0,0.05,26,0)" xlink:href="#aW"/><use transform="matrix(0.05,0,0,0.05,31,0)" xlink:href="#aX"/></g><path d="M33-154v-36h34v36H33zM33 0v-36h34V0H33" id="bE"/><g id="am"><use transform="matrix(0.05,0,0,0.05,0,0)" xlink:href="#aY"/><use transform="matrix(0.05,0,0,0.05,10,0)" xlink:href="#aZ"/><use transform="matrix(0.05,0,0,0.05,20,0)" xlink:href="#bE"/></g><g id="an"><use transform="matrix(0.05,0,0,0.05,0,0)" xlink:href="#aW"/><use transform="matrix(0.05,0,0,0.05,5,0)" xlink:href="#av"/><use transform="matrix(0.05,0,0,0.05,15,0)" xlink:href="#az"/><use transform="matrix(0.05,0,0,0.05,25,0)" xlink:href="#aT"/><use transform="matrix(0.05,0,0,0.05,35,0)" xlink:href="#aw"/></g><g id="ao"><use transform="matrix(0.05,0,0,0.05,0,0)" xlink:href="#aO"/><use transform="matrix(0.05,0,0,0.05,12,0)" xlink:href="#ba"/><use transform="matrix(0.05,0,0,0.05,21,0)" xlink:href="#aC"/><use transform="matrix(0.05,0,0,0.05,31,0)" xlink:href="#av"/><use transform="matrix(0.05,0,0,0.05,41,0)" xlink:href="#aw"/></g><g id="ap"><use transform="matrix(0.05,0,0,0.05,0,0)" xlink:href="#aw"/><use transform="matrix(0.05,0,0,0.05,5,0)" xlink:href="#aB"/><use transform="matrix(0.05,0,0,0.05,10.95,0)" xlink:href="#au"/><use transform="matrix(0.05,0,0,0.05,14.899999999999999,0)" xlink:href="#ay"/><use transform="matrix(0.05,0,0,0.05,24.9,0)" xlink:href="#ay"/><use transform="matrix(0.05,0,0,0.05,34.9,0)" xlink:href="#aC"/><use transform="matrix(0.05,0,0,0.05,44.9,0)" xlink:href="#aB"/></g><g id="aq"><use transform="matrix(0.05,0,0,0.05,0,0)" xlink:href="#aA"/><use transform="matrix(0.05,0,0,0.05,10,0)" xlink:href="#az"/><use transform="matrix(0.05,0,0,0.05,20,0)" xlink:href="#aC"/><use transform="matrix(0.05,0,0,0.05,30,0)" xlink:href="#av"/></g><path d="M206 0h-36l-40-164L89 0H53L-1-190h32L70-26l43-164h34l41 164 42-164h31" id="bF"/><g id="ar"><use transform="matrix(0.05,0,0,0.05,0,0)" xlink:href="#aD"/><use transform="matrix(0.05,0,0,0.05,10,0)" xlink:href="#aJ"/><use transform="matrix(0.05,0,0,0.05,13.949999999999998,0)" xlink:href="#aJ"/><use transform="matrix(0.05,0,0,0.05,17.9,0)" xlink:href="#aA"/><use transform="matrix(0.05,0,0,0.05,27.899999999999995,0)" xlink:href="#bF"/><use transform="matrix(0.05,0,0,0.05,40.85,0)" xlink:href="#aC"/><use transform="matrix(0.05,0,0,0.05,50.85,0)" xlink:href="#aE"/><use transform="matrix(0.05,0,0,0.05,60.85,0)" xlink:href="#aI"/></g><g id="as"><use transform="matrix(0.05,0,0,0.05,0,0)" xlink:href="#aQ"/><use transform="matrix(0.05,0,0,0.05,12,0)" xlink:href="#bd"/><use transform="matrix(0.05,0,0,0.05,17,0)" xlink:href="#aw"/><use transform="matrix(0.05,0,0,0.05,22,0)" xlink:href="#aC"/><use transform="matrix(0.05,0,0,0.05,32,0)" xlink:href="#aB"/></g><path d="M32 76v-337h29V76H32" id="bG"/><g id="at"><use transform="matrix(0.05,0,0,0.05,0,0)" xlink:href="#bv"/><use transform="matrix(0.05,0,0,0.05,10.35,0)" xlink:href="#aC"/><use transform="matrix(0.05,0,0,0.05,20.35,0)" xlink:href="#aF"/><use transform="matrix(0.05,0,0,0.05,29.35,0)" xlink:href="#bG"/><use transform="matrix(0.05,0,0,0.05,34,0)" xlink:href="#bw"/><use transform="matrix(0.05,0,0,0.05,46.95,0)" xlink:href="#aA"/></g></defs></g></svg>